<svg width="49" height="58" viewBox="0 0 49 58" version="1.1" xmlns="http://www.w3.org/2000/svg" xmlns:xlink="http://www.w3.org/1999/xlink">
<title>comerce-location</title>
<desc>Created using Figma</desc>
<g id="Canvas" transform="translate(-4256 823)">
<g id="comerce-location">
<g id="Group">
<g id="Icons 21">
<g id="Group">
<g id="Vector">
<use xlink:href="#path0_fill" transform="translate(4256 -807.051)" fill="#FCFDFF"/>
</g>
<g id="Vector">
<use xlink:href="#path1_fill" transform="translate(4268.73 -823)" fill="#FCFDFF"/>
</g>
</g>
</g>
</g>
</g>
</g>
<defs>
<path id="path0_fill" d="M 41.5256 0.0693808C 41.0857 2.17816 40.401 4.41762 39.5973 6.59197C 41.8723 9.6854 43.2335 13.487 43.2335 17.6087C 43.2335 27.9139 34.8297 36.2979 24.4998 36.2979C 14.1708 36.2979 5.76645 27.9139 5.76645 17.6087C 5.76645 13.459 7.14665 9.63111 9.44975 6.52627C 8.61568 4.16872 7.97428 1.91584 7.55189 -8.41143e-07C 2.90805 4.45136 -1.88978e-07 10.6912 -1.88978e-07 17.6087C -1.88978e-07 31.0863 10.9906 42.0506 24.4997 42.0506C 38.0095 42.0506 49 31.0863 49 17.6087C 49.0001 10.7287 46.1262 4.51527 41.5256 0.0693808Z"/>
<path id="path1_fill" d="M 11.7733 34.9964C 15.9781 34.9964 23.5464 18.2325 23.5464 11.7453C 23.5464 5.25828 18.2755 0 11.7733 0C 5.2713 0 2.03514e-07 5.25828 2.03514e-07 11.7453C 2.03514e-07 18.2325 7.67979 34.9964 11.7733 34.9964ZM 5.28606 13.1908C 5.28606 9.61602 8.19007 6.71909 11.7733 6.71909C 15.3573 6.71909 18.2611 9.61602 18.2611 13.1908C 18.2611 16.766 15.3572 19.6631 11.7733 19.6631C 8.19007 19.6631 5.28606 16.766 5.28606 13.1908Z"/>
</defs>
</svg>
