<svg xmlns="http://www.w3.org/2000/svg" xmlns:xlink="http://www.w3.org/1999/xlink" viewBox="0 0 512 512"><defs><style>.a{fill:#051321;}.b{fill:url(#a);}.c,.n{fill:#fff;}.d{fill:url(#b);}.e{fill:url(#c);}.f{fill:url(#d);}.g{fill:url(#e);}.h{fill:url(#f);}.i{fill:url(#g);}.j{fill:url(#h);}.k{fill:url(#i);}.l{fill:url(#j);}.m{fill:#afca05;}.m,.n{fill-rule:evenodd;}.n{stroke:#afca05;stroke-miterlimit:10;stroke-width:14px;}</style><linearGradient id="a" x1="434.63" y1="70.32" x2="247.14" y2="317.81" gradientTransform="translate(297.81 -195.18) rotate(54)" gradientUnits="userSpaceOnUse"><stop offset="0" stop-color="#fff"/><stop offset="0.08" stop-color="#ccd1d8"/><stop offset="0.16" stop-color="#9fa9b5"/><stop offset="0.25" stop-color="#778597"/><stop offset="0.34" stop-color="#55677d"/><stop offset="0.43" stop-color="#3a4f68"/><stop offset="0.54" stop-color="#243c57"/><stop offset="0.65" stop-color="#152e4c"/><stop offset="0.79" stop-color="#0d2645"/><stop offset="1" stop-color="#0a2443"/></linearGradient><linearGradient id="b" x1="503.78" y1="209.45" x2="217.29" y2="302.44" gradientTransform="translate(96.75 -98.83) rotate(18)" xlink:href="#a"/><linearGradient id="c" x1="484.16" y1="369" x2="196.17" y2="265.5" gradientTransform="translate(537.05 -104.49) rotate(72)" xlink:href="#a"/><linearGradient id="d" x1="378.69" y1="479.8" x2="195.7" y2="227.81" gradientTransform="translate(263.87 -101.58) rotate(36)" xlink:href="#a"/><linearGradient id="e" x1="225.26" y1="507.63" x2="222.26" y2="204.64" gradientTransform="matrix(1, 0, 0, 1, 0, 0)" xlink:href="#a"/><linearGradient id="f" x1="81.73" y1="440.12" x2="261.72" y2="194.14" gradientTransform="translate(327.46 -7.98) rotate(54)" xlink:href="#a"/><linearGradient id="g" x1="9.97" y1="301.21" x2="291.95" y2="211.22" gradientTransform="translate(86.53 -34.33) rotate(18)" xlink:href="#a"/><linearGradient id="h" x1="28.28" y1="147.39" x2="314.77" y2="241.89" gradientTransform="translate(303.67 -28.66) rotate(72)" xlink:href="#a"/><linearGradient id="i" x1="137.01" y1="31.69" x2="317" y2="291.18" gradientTransform="translate(134.86 -101.58) rotate(36)" xlink:href="#a"/><linearGradient id="j" x1="288.25" y1="3.96" x2="288.25" y2="309.51" gradientTransform="matrix(1, 0, 0, 1, 0, 0)" xlink:href="#a"/></defs><title>Ресурс 4</title><rect class="a" width="512" height="512"/><ellipse class="b" cx="340.44" cy="194.65" rx="152.78" ry="66.77" transform="translate(-17.14 355.66) rotate(-54)"/><path class="c" d="M271.21,328.34c-8.83,0-16.56-2.28-22.9-6.89-15.78-11.47-20.55-35.62-13.43-68,6.87-31.28,24-66.92,48.34-100.37s52.9-60.79,80.52-77c28.61-16.78,53.05-19.7,68.83-8.24s20.55,35.62,13.43,68c-6.87,31.28-24,66.92-48.34,100.37s-52.9,60.79-80.52,77C300,323.26,284.38,328.34,271.21,328.34ZM409.69,69c-11.76,0-26.19,4.72-41.95,14-26.7,15.66-54.45,42.23-78.12,74.81s-40.37,67.18-47,97.41c-6.31,28.7-2.53,50.53,10.35,59.9s34.82,6.21,60.17-8.66c26.7-15.66,54.45-42.23,78.12-74.81s40.37-67.18,47-97.41c6.31-28.7,2.53-50.53-10.35-59.9C423,70.71,416.86,69,409.69,69Z"/><ellipse class="d" cx="360.37" cy="256" rx="152.78" ry="66.77" transform="matrix(0.95, -0.31, 0.31, 0.95, -61.47, 123.89)"/><path class="c" d="M290.47,339.1c-6.44,0-12.67-.29-18.64-.88-33-3.24-54.5-15.24-60.53-33.79s4.31-40.89,29.1-62.91c23.95-21.27,58.79-40,98.1-52.79s78.53-18.09,110.4-15c33,3.24,54.5,15.24,60.53,33.79s-4.31,40.89-29.1,62.92c-23.95,21.27-58.79,40-98.1,52.79h0C350.28,333.65,318.4,339.1,290.47,339.1ZM430.22,180.82c-27.07,0-58.09,5.32-89.26,15.45-38.3,12.45-72.15,30.62-95.29,51.18-22,19.51-31.75,39.39-26.83,54.54s24.52,25.49,53.77,28.36c30.81,3,68.87-2.16,107.17-14.61s72.14-30.62,95.29-51.18C497,245,506.82,225.16,501.9,210s-24.52-25.48-53.77-28.36C442.4,181.09,436.41,180.82,430.22,180.82Z"/><ellipse class="e" cx="340.44" cy="317.35" rx="66.77" ry="152.78" transform="translate(-66.58 543.06) rotate(-72)"/><path class="c" d="M410.34,400.45c-27.93,0-59.8-5.45-91.75-15.83h0c-39.32-12.78-74.16-31.52-98.1-52.79-24.8-22-35.13-44.36-29.1-62.91s27.52-30.55,60.53-33.79c31.87-3.13,71.08,2.18,110.4,15s74.16,31.52,98.1,52.79c24.8,22,35.13,44.36,29.1,62.92S462,396.33,429,399.57C423,400.16,416.77,400.45,410.34,400.45ZM321,377.08c38.3,12.44,76.36,17.63,107.17,14.61,29.25-2.87,48.84-13.21,53.77-28.36s-4.86-35-26.83-54.54c-23.15-20.56-57-38.73-95.29-51.18S283.48,240,252.67,243c-29.25,2.87-48.84,13.21-53.77,28.36s4.86,35,26.83,54.54C248.88,346.46,282.73,364.64,321,377.08Z"/><ellipse class="f" cx="288.25" cy="355.26" rx="66.77" ry="152.78" transform="translate(-153.77 237.28) rotate(-36)"/><path class="c" d="M357.48,489c-13.18,0-28.81-5.08-45.93-15.12-27.62-16.2-56.22-43.54-80.52-77s-41.47-69.09-48.34-100.37c-7.12-32.39-2.35-56.54,13.43-68s40.22-8.54,68.83,8.24c27.62,16.2,56.22,43.54,80.52,77s41.47,69.09,48.34,100.37c7.12,32.39,2.35,56.54-13.43,68C374,486.67,366.32,489,357.48,489Zm-120-96.77c23.67,32.58,51.42,59.15,78.12,74.81,25.35,14.87,47.28,18,60.17,8.66s16.66-31.19,10.35-59.9c-6.64-30.24-23.34-64.83-47-97.41s-51.42-59.15-78.12-74.81c-25.35-14.87-47.28-18-60.17-8.66s-16.66,31.2-10.35,59.9C197.07,325,213.77,359.6,237.44,392.18Z"/><ellipse class="g" cx="223.75" cy="355.26" rx="66.77" ry="152.78"/><path class="c" d="M223.75,512c-19.51,0-37.56-16.73-50.84-47.12C160.08,435.53,153,396.61,153,355.26s7.06-80.27,19.89-109.61c13.28-30.39,31.34-47.12,50.84-47.12s37.56,16.73,50.84,47.12c12.82,29.34,19.89,68.27,19.89,109.61s-7.06,80.27-19.89,109.61C261.31,495.27,243.25,512,223.75,512Zm0-305.55c-15.93,0-31.81,15.44-43.58,42.37-12.4,28.37-19.22,66.17-19.22,106.44s6.83,78.08,19.22,106.44c11.77,26.93,27.65,42.37,43.58,42.37s31.81-15.44,43.58-42.37c12.4-28.37,19.22-66.17,19.22-106.44s-6.83-78.08-19.22-106.44C255.56,221.89,239.68,206.45,223.75,206.45Z"/><ellipse class="h" cx="171.56" cy="317.35" rx="152.78" ry="66.77" transform="translate(-186.02 269.61) rotate(-54)"/><path class="c" d="M102.33,451c-8.83,0-16.56-2.28-22.9-6.89-15.78-11.47-20.55-35.62-13.43-68,6.87-31.28,24-66.92,48.34-100.37h0c24.3-33.45,52.9-60.79,80.52-77,28.61-16.78,53-19.7,68.83-8.24s20.55,35.62,13.43,68c-6.87,31.28-24,66.92-48.34,100.37s-52.9,60.79-80.52,77C131.14,446,115.51,451,102.33,451Zm18.42-170.61c-23.67,32.58-40.37,67.18-47,97.41-6.31,28.7-2.53,50.53,10.35,59.9s34.82,6.2,60.17-8.66c26.7-15.66,54.45-42.23,78.12-74.81s40.37-67.18,47-97.41c6.31-28.7,2.53-50.53-10.35-59.9s-34.82-6.21-60.17,8.66c-26.7,15.66-54.45,42.23-78.12,74.81Z"/><ellipse class="i" cx="151.63" cy="256" rx="152.78" ry="66.77" transform="translate(-71.69 59.39) rotate(-18)"/><path class="c" d="M81.73,339.1c-6.44,0-12.67-.29-18.64-.88C30.09,335,8.59,323,2.56,304.43s4.31-40.89,29.1-62.91c23.95-21.27,58.79-40,98.1-52.79s78.52-18.09,110.4-15c33,3.24,54.5,15.24,60.53,33.79s-4.31,40.89-29.1,62.92c-23.95,21.27-58.79,40-98.1,52.79C141.53,333.65,109.66,339.1,81.73,339.1ZM131,192.5l1.22,3.77c-38.3,12.45-72.15,30.62-95.29,51.18C15,267,5.17,286.84,10.1,302s24.52,25.49,53.77,28.36c30.81,3,68.87-2.16,107.17-14.61s72.15-30.62,95.29-51.18c22-19.51,31.75-39.39,26.83-54.54s-24.52-25.48-53.77-28.36c-30.81-3-68.87,2.16-107.17,14.61Z"/><ellipse class="j" cx="171.56" cy="194.65" rx="66.77" ry="152.78" transform="translate(-66.58 297.67) rotate(-72)"/><path class="c" d="M241.46,277.75c-27.93,0-59.8-5.45-91.76-15.83-39.32-12.78-74.16-31.52-98.1-52.79-24.8-22-35.13-44.36-29.1-62.91S50,115.67,83,112.43c31.87-3.13,71.08,2.18,110.4,15s74.16,31.52,98.1,52.79c24.8,22,35.13,44.36,29.1,62.92s-27.52,30.55-60.53,33.79C254.13,277.46,247.9,277.75,241.46,277.75ZM101.71,119.47c-6.19,0-12.18.28-17.92.84C54.55,123.18,35,133.52,30,148.67s4.86,35,26.83,54.54c23.15,20.56,57,38.73,95.29,51.18S228.51,272,259.33,269c29.25-2.87,48.84-13.21,53.77-28.36s-4.86-35-26.83-54.54c-23.15-20.56-57-38.73-95.29-51.18C159.8,124.79,128.78,119.47,101.71,119.47Z"/><ellipse class="k" cx="223.75" cy="156.74" rx="66.77" ry="152.78" transform="translate(-49.4 161.45) rotate(-36)"/><path class="c" d="M293,290.42c-13.18,0-28.81-5.08-45.93-15.12-27.62-16.2-56.22-43.55-80.52-77s-41.47-69.09-48.34-100.37c-7.12-32.39-2.35-56.54,13.43-68s40.23-8.54,68.83,8.24c27.62,16.2,56.22,43.55,80.52,77h0c24.3,33.45,41.47,69.09,48.34,100.37,7.12,32.39,2.35,56.54-13.43,68C309.54,288.14,301.81,290.42,293,290.42ZM154.49,31c-7.17,0-13.34,1.75-18.22,5.29-12.89,9.36-16.66,31.19-10.35,59.9,6.64,30.24,23.34,64.83,47,97.41s51.42,59.15,78.12,74.81c25.35,14.87,47.28,18,60.17,8.66s16.66-31.19,10.35-59.9c-6.64-30.24-23.34-64.83-47-97.41S223.14,60.67,196.44,45C180.69,35.77,166.26,31,154.49,31Z"/><ellipse class="l" cx="288.25" cy="156.74" rx="66.77" ry="152.78"/><path class="c" d="M288.25,313.47c-19.51,0-37.56-16.73-50.84-47.12-12.82-29.34-19.89-68.27-19.89-109.61s7.06-80.27,19.89-109.61C250.69,16.73,268.75,0,288.25,0s37.56,16.73,50.84,47.12C351.92,76.47,359,115.39,359,156.74S351.92,237,339.09,266.35C325.81,296.74,307.76,313.47,288.25,313.47Zm0-305.55c-15.93,0-31.81,15.44-43.58,42.37-12.4,28.37-19.22,66.17-19.22,106.44s6.83,78.08,19.22,106.44c11.77,26.93,27.65,42.37,43.58,42.37s31.81-15.44,43.58-42.37c12.4-28.37,19.22-66.17,19.22-106.44s-6.83-78.08-19.22-106.44C320.07,23.37,304.18,7.92,288.25,7.92Z"/><path class="c" d="M265.49,304.61c-14.66-10.19-19.49-32.25-13.58-62.1,5.72-28.9,20.82-62,42.53-93.26S341.92,92.31,367,76.88C392.94,60.93,415.29,57.76,430,68l-3.87,5.58c-12.31-8.55-32-5.31-55.51,9.13-24.31,15-49.37,40-70.56,70.47s-35.9,62.7-41.44,90.7c-5.35,27-1.52,46.65,10.8,55.21Z"/><path class="m" d="M222.57,245.69q1,10.26-2.31,23.6A151.07,151.07,0,0,1,210.77,296a223.92,223.92,0,0,1-14.11,25.91,141.07,141.07,0,0,1-16.16,21.29q-10.26,11.29-16.16,15.13c-50.22,32.74-99,6.17-132.61-34.63l-6.93-12.31a46,46,0,0,1-3.59-8,75.65,75.65,0,0,1-2.31-9q-1-5.13-3.59-15.39Q9.16,257,9.16,239.53q0-84.13,27.7-147.74,4.11-9.23,8-16.42t8-13.85q4.1-6.67,8.46-13.85c11.44-18.84,43.21-23.6,64.38-23.6l19,1c26.66,1.52,53.19,22.38,59.51,49.25C207.54,89,207,86.66,208.72,93.84s3.25,14.79,4.62,22.83c1.3,7.61,4.83,19.23-.26,24.88a45.18,45.18,0,0,1-6.41,5.64,55.64,55.64,0,0,1-9.49,5.64,26.5,26.5,0,0,1-11.54,2.56c-27.9,0-27.26-26.31-28.22-44.89a190.53,190.53,0,0,0-2.56-22.06,98.86,98.86,0,0,0-6.16-21.8c-3.47-8.23-11.67-11.41-20-9.75q-11.8,3.08-21,15.65A137.62,137.62,0,0,0,91.5,102a223.5,223.5,0,0,0-11,34.88q-4.1,18-6.16,31.29-2.57,17.44-3.59,34.37t-1,33.86q0,10.77,1.79,28a174.59,174.59,0,0,0,6.67,33.09A94.74,94.74,0,0,0,91.5,325.2Q100,337,112.79,337q9.75,0,18.47-7.7a85,85,0,0,0,15.65-18.72A153,153,0,0,0,159,287a127.41,127.41,0,0,0,7.18-22.83l3.08-15.39a2.93,2.93,0,0,0-1.28-3.34,6.5,6.5,0,0,0-3.85-1.28c-8.55,0-19,4.62-33.86,4.62-3.86,0-7.52,1-11.29,1q-4.1,0-7.7-6.16c-7.24-12.42.51-26.53.51-42.07q0-4.1,1-5.13a2,2,0,0,1,2.31-.51,18,18,0,0,1,2.56,1.28c1.25.75,40.29-1.24,46.17-2.31,4-.73,8.06-1.25,12.06-2.05,7.63-1.53,31.12-.31,39,1.54q8.72,2.05,8.72,7.69c0,12.8,7.47,30.17,4.36,38.47q-.77,2.05-5.39,5.13Z"/><path class="n" d="M495.14,374.79q1,10.11-2.27,23.25a148.81,148.81,0,0,1-9.35,26.28,220.58,220.58,0,0,1-13.9,25.52,139,139,0,0,1-15.92,21q-10.11,11.12-15.92,14.91c-49.47,32.25-97.54,6.07-130.63-34.11l-6.82-12.13a45.32,45.32,0,0,1-3.54-7.83,74.52,74.52,0,0,1-2.27-8.84q-1-5.05-3.54-15.16-6.06-21.73-6.06-38.91,0-82.88,27.29-145.53,4-9.1,7.83-16.17t7.83-13.64q4-6.57,8.34-13.64c11.27-18.56,42.57-23.25,63.42-23.25l18.7,1c26.26,1.5,52.39,22,58.62,48.51,3.39,14.39,2.86,12.13,4.55,19.2s3.2,14.57,4.55,22.49c1.28,7.5,4.76,18.94-.25,24.51a44.5,44.5,0,0,1-6.32,5.56,54.81,54.81,0,0,1-9.35,5.56,26.1,26.1,0,0,1-11.37,2.53c-27.49,0-26.85-25.92-27.79-44.22a187.68,187.68,0,0,0-2.53-21.73,97.39,97.39,0,0,0-6.06-21.48c-3.41-8.11-11.49-11.24-19.71-9.6q-11.62,3-20.72,15.41A135.56,135.56,0,0,0,366,233.3a220.16,220.16,0,0,0-10.86,34.36q-4,17.69-6.06,30.82-2.53,17.18-3.54,33.86t-1,33.35q0,10.61,1.77,27.54a172,172,0,0,0,6.57,32.59A93.33,93.33,0,0,0,366,453.12q8.34,11.62,21,11.62,9.6,0,18.19-7.58a83.73,83.73,0,0,0,15.41-18.44,150.68,150.68,0,0,0,11.88-23.25A125.51,125.51,0,0,0,439.56,393l3-15.16a2.89,2.89,0,0,0-1.26-3.29,6.4,6.4,0,0,0-3.79-1.26c-8.43,0-18.72,4.55-33.35,4.55-3.8,0-7.4,1-11.12,1q-4,0-7.58-6.06c-7.14-12.23.51-26.13.51-41.44q0-4,1-5.05a2,2,0,0,1,2.27-.5A17.71,17.71,0,0,1,391.8,327c1.23.74,39.69-1.22,45.48-2.27,4-.72,7.94-1.23,11.88-2,7.52-1.5,30.65-.31,38.4,1.52q8.59,2,8.59,7.58c0,12.61,7.36,29.72,4.3,37.9q-.76,2-5.31,5.05Z"/></svg>