<svg width="33" height="58" viewBox="0 0 33 58" version="1.1" xmlns="http://www.w3.org/2000/svg" xmlns:xlink="http://www.w3.org/1999/xlink">
<title>iphone</title>
<desc>Created using Figma</desc>
<g id="Canvas" transform="translate(-5262 828)">
<g id="iphone">
<g id="Group">
<g id="Vector">
<use xlink:href="#path0_fill" transform="translate(5262 -828)" fill="#FCFDFF"/>
</g>
</g>
</g>
</g>
<defs>
<path id="path0_fill" d="M 27.1071 0L 5.89285 0C 2.64233 0 7.26969e-08 2.71149 7.26969e-08 6.04166L 7.26969e-08 51.9583C 7.26969e-08 55.2885 2.64233 58 5.89285 58L 27.1071 58C 30.3553 58 33 55.2885 33 51.9583L 33 6.04166C 33 2.71149 30.3553 0 27.1071 0ZM 10.6072 4.83329L 22.3929 4.83329C 23.0434 4.83329 23.5715 5.37459 23.5715 6.04166C 23.5715 6.70874 23.0436 7.25004 22.3929 7.25004L 10.6072 7.25004C 9.95666 7.25004 9.42859 6.70874 9.42859 6.04166C 9.42859 5.37459 9.95655 4.83329 10.6072 4.83329ZM 16.5001 54.3751C 15.1989 54.3751 14.1429 53.2948 14.1429 51.9584C 14.1429 50.6221 15.199 49.5418 16.5001 49.5418C 17.8035 49.5418 18.8572 50.6221 18.8572 51.9584C 18.8572 53.2948 17.8035 54.3751 16.5001 54.3751ZM 30.6429 45.9167L 2.35712 45.9167L 2.35712 12.0833L 30.6429 12.0833L 30.6429 45.9167Z"/>
</defs>
</svg>
