<svg width="43" height="45" viewBox="0 0 43 45" version="1.1" xmlns="http://www.w3.org/2000/svg" xmlns:xlink="http://www.w3.org/1999/xlink">
<title>registration</title>
<desc>Created using Figma</desc>
<g id="Canvas" transform="translate(-5253 967)">
<g id="registration">
<g id="Group">
<g id="Group">
<g id="Vector">
<use xlink:href="#path0_fill" transform="translate(5253 -960.491)" fill="#213148"/>
</g>
<g id="Vector">
<use xlink:href="#path1_fill" transform="translate(5261.79 -967)" fill="#213148"/>
</g>
<g id="Vector">
<use xlink:href="#path2_fill" transform="translate(5273.78 -960.493)" fill="#213148"/>
</g>
<g id="Vector">
<use xlink:href="#path3_fill" transform="translate(5271.07 -933.279)" fill="#213148"/>
</g>
</g>
</g>
</g>
</g>
<defs>
<path id="path0_fill" d="M 23.733 32.61C 23.397 33.085 22.905 33.43 22.344 33.585L 19.554 34.347C 19.335 34.409 19.109 34.441 18.881 34.441C 18.367 34.441 17.87 34.284 17.451 33.989C 16.836 33.561 16.45 32.886 16.389 32.155L 16.144 29.274C 16.086 28.683 16.245 28.091 16.581 27.615L 16.684 27.467L 6.732 27.467C 5.929 27.467 5.278 26.805 5.278 26.004C 5.278 25.2 5.929 24.538 6.732 24.538L 18.778 24.538L 21.47 20.693L 6.732 20.693C 5.929 20.693 5.278 20.031 5.278 19.228C 5.278 18.425 5.929 17.763 6.732 17.763L 23.543 17.72L 29.847 8.681L 29.847 1.988C 29.847 0.888 28.996 -1.75476e-07 27.899 -1.75476e-07L 23.073 -1.75476e-07L 23.073 3.819C 23.073 5.622 21.599 7.048 19.799 7.048L 10.093 7.048C 8.289 7.048 6.866 5.621 6.866 3.819L 6.866 -1.75476e-07L 1.988 -1.75476e-07C 0.889 -1.75476e-07 -2.86102e-08 0.889 -2.86102e-08 1.988L -2.86102e-08 36.141C -2.86102e-08 37.241 0.89 38.178 1.988 38.178L 27.897 38.178C 28.997 38.178 29.846 37.24 29.846 36.141L 29.846 23.929L 23.733 32.61ZM 6.732 10.987L 23.156 10.987C 23.957 10.987 24.609 11.648 24.609 12.451C 24.609 13.254 23.957 13.916 23.156 13.916L 6.732 13.916C 5.929 13.916 5.278 13.254 5.278 12.451C 5.278 11.648 5.929 10.987 6.732 10.987Z"/>
<path id="path1_fill" d="M 1.331 11.636L 11.028 11.636C 11.762 11.636 12.359 11.04 12.359 10.304L 12.359 4.727C 12.359 3.991 11.762 3.395 11.028 3.395L 9.567 3.395C 9.557 1.52 8.033 0 6.154 0C 4.274 0 2.752 1.519 2.741 3.395L 1.331 3.395C 0.595 3.395 2.44141e-07 3.991 2.44141e-07 4.727L 2.44141e-07 10.303C 2.44141e-07 11.039 0.595 11.636 1.331 11.636ZM 6.155 1.891C 6.99 1.891 7.667 2.563 7.676 3.396L 4.631 3.396C 4.641 2.563 5.319 1.891 6.155 1.891Z"/>
<path id="path2_fill" d="M 21.33 2.471C 21.285 2.223 21.144 2.006 20.938 1.862L 18.51 0.17C 18.346 0.055 18.157 -3.05176e-08 17.971 -3.05176e-08C 17.675 -3.05176e-08 17.38 0.14 17.199 0.403L -8.23975e-07 25.066L 3.973 27.837L 21.174 3.175C 21.316 2.97 21.373 2.717 21.33 2.471Z"/>
<path id="path3_fill" d="M 0.00302935 1.879L 0.25203 4.775C 0.26403 4.942 0.35303 5.091 0.48803 5.187C 0.58403 5.253 0.697029 5.291 0.809029 5.291C 0.858029 5.291 0.90803 5.284 0.95603 5.27L 3.76103 4.502C 3.88803 4.467 3.99803 4.389 4.07403 4.282L 5.12703 2.772L 1.15103 6.71387e-07L 0.0980306 1.51C 0.0240306 1.617 -0.0109706 1.748 0.00302935 1.879Z"/>
</defs>
</svg>
