<svg width="37" height="35" viewBox="0 0 37 35" version="1.1" xmlns="http://www.w3.org/2000/svg" xmlns:xlink="http://www.w3.org/1999/xlink">
<title>add-goods</title>
<desc>Created using Figma</desc>
<g id="Canvas" transform="translate(-4421 -1054)">
<g id="add-goods">
<g id="Group">
<g id="Icons">
<g id="Group">
<g id="Group">
<g id="Vector">
<use xlink:href="#path0_fill" transform="translate(4421 1058.68)" fill="#FFFCFC"/>
</g>
<g id="Vector">
<use xlink:href="#path1_fill" transform="translate(4439.6 1054)" fill="#FFFCFC"/>
</g>
</g>
</g>
</g>
</g>
</g>
</g>
<defs>
<path id="path0_fill" d="M 29.3414 16.3239L 7.64795 16.3239C 6.94932 16.3239 6.38404 15.8015 6.38404 15.1574C 6.38404 14.5129 6.94932 13.9905 7.64795 13.9905L 20.9636 13.9905C 19.585 13.1977 18.3803 12.1745 17.4091 10.9772L 16.7971 10.9772L 7.8377 0.868936C 6.94049 -0.143709 5.32273 -0.293 4.22563 0.535749C 3.69877 0.933929 3.3642 1.50864 3.29628 2.13433C 3.22991 2.75966 3.43336 3.38471 3.86512 3.87119L 10.1642 10.9772L 1.33296 10.9772C 0.910957 10.9772 0.514667 11.1611 0.262969 11.4738C 0.0111158 11.7866 -0.0649358 12.1904 0.0569636 12.563L 5.57078 29.4483C 5.74101 29.9685 6.25951 30.3239 6.84825 30.3239L 30.1397 30.3239C 30.7286 30.3239 31.247 29.9685 31.4172 29.4483L 36.931 12.563C 36.9607 12.4729 36.9778 12.3807 36.984 12.289C 35.2454 13.8953 33.0138 15.045 30.5225 15.5377C 30.3498 15.9923 29.8944 16.3239 29.3414 16.3239ZM 24.287 27.9905L 12.7024 27.9905C 12.0043 27.9905 11.439 27.468 11.439 26.8239C 11.439 26.1796 12.0043 25.6573 12.7024 25.6573L 24.287 25.6573C 24.9851 25.6573 25.5504 26.1796 25.5504 26.8239C 25.5503 27.468 24.985 27.9905 24.287 27.9905ZM 26.8141 22.1573L 10.1752 22.1573C 9.47645 22.1573 8.9114 21.6348 8.9114 20.9906C 8.9114 20.3464 9.47645 19.8239 10.1752 19.8239L 26.8141 19.8239C 27.5129 19.8239 28.078 20.3464 28.078 20.9906C 28.078 21.6348 27.5129 22.1573 26.8141 22.1573Z"/>
<path id="path1_fill" d="M 9.19729 16.9829C 14.278 16.9829 18.395 13.1813 18.395 8.49198C 18.395 3.80255 14.278 0 9.19729 0C 4.11779 0 -1.229e-07 3.80255 -1.229e-07 8.49198C -1.229e-07 13.1813 4.11779 16.9829 9.19729 16.9829ZM 5.78287 6.74189L 7.30165 6.74189L 7.30165 5.33943C 7.30165 4.37276 8.15085 3.58948 9.19729 3.58948C 10.2441 3.58948 11.0928 4.37283 11.0928 5.33943L 11.0928 6.74189L 12.6122 6.74189C 13.6586 6.74189 14.5077 7.52516 14.5077 8.49191C 14.5077 9.45858 13.6586 10.2419 12.6122 10.2419L 11.0928 10.2419L 11.0928 11.644C 11.0928 12.6106 10.2441 13.3939 9.19729 13.3939C 8.15085 13.3939 7.30165 12.6106 7.30165 11.644L 7.30165 10.2419L 5.78287 10.2419C 4.73627 10.2419 3.88723 9.45858 3.88723 8.49191C 3.88731 7.52516 4.73634 6.74189 5.78287 6.74189Z"/>
</defs>
</svg>
