<svg width="63" height="61" viewBox="0 0 63 61" version="1.1" xmlns="http://www.w3.org/2000/svg" xmlns:xlink="http://www.w3.org/1999/xlink">
<title>chas-payment</title>
<desc>Created using Figma</desc>
<g id="Canvas" transform="translate(-4151 509)">
<g id="chas-payment">
<g id="Group">
<g id="Icons 40">
<g id="Group">
<g id="Vector">
<use xlink:href="#path0_fill" transform="translate(4177.73 -488.698)" fill="#F2F5FA"/>
</g>
<g id="Vector">
<use xlink:href="#path1_fill" transform="translate(4191.31 -479.049)" fill="#F2F5FA"/>
</g>
</g>
<g id="Vector">
<use xlink:href="#path2_fill" transform="translate(4151 -509)" fill="#F2F5FA"/>
</g>
</g>
</g>
</g>
</g>
<defs>
<path id="path0_fill" d="M 18.1375 -9.25216e-08C 8.13545 -9.25216e-08 2.78642e-07 8.10411 2.78642e-07 18.0673C 2.78642e-07 28.0306 8.13558 36.1346 18.1375 36.1346C 28.1391 36.1346 36.2746 28.0306 36.2746 18.0673C 36.2746 8.10424 28.139 -9.25216e-08 18.1375 -9.25216e-08ZM 18.1375 29.9404C 11.5645 29.9404 6.21854 24.6146 6.21854 18.0674C 6.21854 11.5203 11.5645 6.19461 18.1375 6.19461C 24.7102 6.19461 30.056 11.5203 30.056 18.0674C 30.056 24.6146 24.7101 29.9404 18.1375 29.9404Z"/>
<path id="path1_fill" d="M 5.65575 7.05765C 3.89482 6.3961 3.16792 5.96483 3.16792 5.2832C 3.16792 4.70451 3.60314 4.12558 4.95142 4.12558C 5.71636 4.12558 6.33775 4.25063 6.8379 4.40399C 7.12919 4.49267 7.44318 4.46046 7.70834 4.31114C 7.97554 4.16208 8.16969 3.91184 8.24464 3.61776L 8.26303 3.54487C 8.42915 2.90366 8.0444 2.25031 7.40475 2.08306C 6.89065 1.9479 6.27523 1.84937 5.53008 1.81501L 5.53008 1.01046C 5.53008 0.451856 5.07697 3.85506e-07 4.51392 3.85506e-07C 3.95531 3.85506e-07 3.49967 0.451856 3.49967 1.01046L 3.49967 1.96003C 1.28335 2.39356 1.60993e-06 3.81709 1.60993e-06 5.63387C 1.60993e-06 7.63406 1.50984 8.66688 3.72856 9.40865C 5.26085 9.92467 5.92294 10.4209 5.92294 11.2053C 5.92294 12.0302 5.11527 12.486 3.93489 12.486C 3.08499 12.486 2.2834 12.3126 1.58694 12.0646C 1.30351 11.9616 0.98775 11.986 0.718272 12.1269C 0.449174 12.2678 0.254768 12.5159 0.177919 12.8082L 0.137338 12.9699C -0.0244762 13.6028 0.335676 14.2522 0.959217 14.4521C 1.67191 14.6797 2.52612 14.8409 3.39657 14.8773L 3.39657 15.829C 3.39657 16.3855 3.85005 16.8395 4.41057 16.8395C 4.97134 16.8395 5.42482 16.3856 5.42482 15.829L 5.42482 14.7339C 7.80929 14.3207 9.1128 12.7518 9.1128 10.9168C 9.11306 9.05759 8.11922 7.92473 5.65575 7.05765Z"/>
<path id="path2_fill" d="M 22.5816 38.3695C 22.5816 29.1121 28.3043 21.1692 36.4054 17.8444C 35.8991 16.6064 34.6889 15.7393 33.2761 15.7393L 30.0362 15.7393L 30.0362 10.6416C 30.0362 4.77374 25.2449 1.78297e-08 19.3543 1.78297e-08C 13.4637 1.78297e-08 8.6704 4.77374 8.6704 10.6416L 8.6704 15.7392L 5.48269 15.7392C 3.67903 15.7392 2.19125 17.1426 2.09399 18.9372L 0.0049925 57.4347C -0.0454792 58.3626 0.28842 59.2698 0.929969 59.9433C 1.5719 60.6167 2.46238 61 3.39382 61L 35.3647 61C 36.2959 61 37.1866 60.6167 37.8304 59.9433C 37.9516 59.8162 38.0489 59.6734 38.1483 59.5321C 29.1341 56.6849 22.5816 48.2782 22.5816 38.3695ZM 14.8888 10.6416C 14.8888 8.18938 16.8927 6.19348 19.3543 6.19348C 21.8156 6.19348 23.8176 8.18938 23.8176 10.6416L 23.8176 15.7392L 14.8888 15.7392L 14.8888 10.6416Z"/>
</defs>
</svg>
