<svg width="36" height="36" viewBox="0 0 36 36" version="1.1" xmlns="http://www.w3.org/2000/svg" xmlns:xlink="http://www.w3.org/1999/xlink">
<title>instagram-social-network-logo-of-photo-camera</title>
<desc>Created using Figma</desc>
<g id="Canvas" transform="translate(-5027 -1598)">
<g id="instagram-social-network-logo-of-photo-camera">
<g id="Group">
<g id="Vector">
<use xlink:href="#path0_fill" transform="translate(5027 1598)" fill="#FFFFFF"/>
</g>
</g>
</g>
</g>
<defs>
<path id="path0_fill" d="M 4.57677 0L 31.0808 0C 33.5978 0 35.6572 1.88141 35.6572 4.62036L 35.6572 31.3796C 35.6572 34.1186 33.5978 36 31.0808 36L 4.57677 36C 2.05902 36 0 34.1186 0 31.3796L 0 4.62036C 0 1.88141 2.05902 0 4.57677 0ZM 25.975 3.99975C 25.0919 3.99975 24.3703 4.72866 24.3703 5.62058L 24.3703 9.49983C 24.3703 10.3914 25.0919 11.1207 25.975 11.1207L 30.0051 11.1207C 30.8882 11.1207 31.6105 10.3914 31.6105 9.49983L 31.6105 5.62058C 31.6105 4.72866 30.8882 3.99975 30.0051 3.99975L 25.975 3.99975ZM 31.6274 15.2243L 28.489 15.2243C 28.786 16.2031 28.9467 17.2399 28.9467 18.3125C 28.9467 24.3005 23.9837 29.1545 17.8626 29.1545C 11.742 29.1545 6.77967 24.3005 6.77967 18.3125C 6.77967 17.2391 6.94003 16.2027 7.23731 15.2243L 3.96244 15.2243L 3.96244 30.4312C 3.96244 31.2181 4.6002 31.8624 5.38002 31.8624L 30.2105 31.8624C 30.9903 31.8624 31.6281 31.2185 31.6281 30.4312L 31.6281 15.2243L 31.6274 15.2243ZM 17.8623 10.9162C 13.9075 10.9162 10.7011 14.0525 10.7011 17.9218C 10.7011 21.7911 13.9075 24.9274 17.8623 24.9274C 21.8174 24.9274 25.0242 21.7911 25.0242 17.9218C 25.0242 14.0525 21.8177 10.9162 17.8623 10.9162Z"/>
</defs>
</svg>
