<svg width="27" height="36" viewBox="0 0 27 36" version="1.1" xmlns="http://www.w3.org/2000/svg" xmlns:xlink="http://www.w3.org/1999/xlink">
<title>odnoklassniki-logo</title>
<desc>Created using Figma</desc>
<g id="Canvas" transform="translate(-5189 -1598)">
<g id="odnoklassniki-logo">
<g id="Group">
<g id="Group">
<g id="Vector">
<use xlink:href="#path0_fill" transform="translate(5189.93 1616.13)" fill="#FFFFFF"/>
</g>
<g id="Vector">
<use xlink:href="#path1_fill" transform="translate(5191.92 1598)" fill="#FFFFFF"/>
</g>
</g>
</g>
</g>
</g>
<defs>
<path id="path0_fill" d="M 10.5486 7.22793C 7.29073 6.93686 4.35332 6.24953 1.83843 4.56458C 1.52638 4.35494 1.2042 4.15286 0.919441 3.91872C -0.181318 3.01309 -0.292231 1.97587 0.578782 0.906982C 1.32392 -0.00769858 2.57476 -0.252392 3.8749 0.272814C 4.12665 0.374613 4.36652 0.501673 4.59627 0.638159C 9.28319 3.39691 15.7218 3.47307 20.4263 0.762202C 20.8924 0.456052 21.3907 0.206456 21.9681 0.0790193C 23.0909 -0.167937 24.1379 0.185342 24.7405 1.02688C 25.4288 1.98793 25.42 2.92599 24.5719 3.67214C 23.2709 4.81606 21.7062 5.64364 19.9677 6.22126C 18.3239 6.7672 16.5233 7.04206 14.7412 7.22454C 15.0101 7.47527 15.1369 7.59856 15.305 7.74334C 17.7248 9.82607 20.1552 11.9001 22.5671 13.9893C 23.3888 14.7011 23.5605 15.5837 23.108 16.4117C 22.6133 17.3166 21.506 17.9119 20.4202 17.8482C 19.7323 17.8075 19.1957 17.5141 18.7191 17.1028C 16.893 15.5287 15.0326 13.9836 13.2435 12.3797C 12.7228 11.9133 12.4724 12.0015 12.0129 12.4065C 10.1758 14.0266 8.30875 15.6218 6.43072 17.208C 5.58744 17.9202 4.58395 18.0484 3.60598 17.6416C 2.5664 17.2099 1.90489 16.3008 1.95594 15.3873C 1.99115 14.7693 2.3459 14.2973 2.84104 13.8739C 5.23577 11.8255 7.62391 9.77177 10.0129 7.71996C 10.1709 7.58347 10.3184 7.43869 10.5486 7.22793Z"/>
<path id="path1_fill" d="M 10.5439 18.2216C 4.73199 18.2047 -0.0337103 14.0773 0.000179577 9.09067C 0.0336293 4.04899 4.80241 -0.0139144 10.6715 3.58167e-05C 16.5525 0.013609 21.2729 4.13495 21.2434 9.22904C 21.2135 14.2055 16.4147 18.239 10.5439 18.2216ZM 15.8259 9.10273C 15.8157 6.62676 13.5139 4.65563 10.6293 4.65337C 7.72046 4.65073 5.39791 6.65768 5.42035 9.15627C 5.44192 11.6228 7.76359 13.58 10.6561 13.5709C 13.5398 13.5623 15.8355 11.5783 15.8259 9.10273Z"/>
</defs>
</svg>
