<svg width="28" height="36" viewBox="0 0 28 36" version="1.1" xmlns="http://www.w3.org/2000/svg" xmlns:xlink="http://www.w3.org/1999/xlink">
<title>pinterest-social-logo</title>
<desc>Created using Figma</desc>
<g id="Canvas" transform="translate(-5081 -1598)">
<g id="pinterest-social-logo">
<g id="Group">
<g id="Vector">
<use xlink:href="#path0_fill" transform="translate(5081.31 1598)" fill="#FFFFFF"/>
</g>
</g>
</g>
</g>
<defs>
<path id="path0_fill" d="M 14.5446 0C 4.87529 0 1.02398e-07 7.04362 1.02398e-07 12.9177C 1.02398e-07 16.4742 1.32511 19.6377 4.16685 20.8172C 4.63334 21.0107 5.05122 20.8242 5.18689 20.3001C 5.28048 19.937 5.50284 19.0218 5.60187 18.6404C 5.73826 18.1218 5.68494 17.94 5.30913 17.4882C 4.48969 16.5059 3.96589 15.2343 3.96589 13.433C 3.96589 8.20724 7.81389 3.52918 13.9864 3.52918C 19.4507 3.52918 22.4535 6.92236 22.4535 11.4537C 22.4535 17.4159 19.8567 22.4478 16.0018 22.4478C 13.8725 22.4478 12.2793 20.6587 12.79 18.4645C 13.4016 15.845 14.586 13.0176 14.586 11.1272C 14.586 9.43462 13.6925 8.02258 11.8418 8.02258C 9.66534 8.02258 7.91727 10.3104 7.91727 13.3748C 7.91727 15.3268 8.56622 16.6471 8.56622 16.6471C 8.56622 16.6471 6.3386 26.2357 5.94902 27.915C 5.17093 31.2588 5.83221 35.3585 5.88807 35.7725C 5.92036 36.0179 6.23051 36.0762 6.37125 35.8911C 6.57257 35.6247 9.16439 32.3734 10.0455 29.1243C 10.2947 28.2043 11.4762 23.4408 11.4762 23.4408C 12.1835 24.8108 14.2501 26.0179 16.4479 26.0179C 22.9897 26.0179 27.4286 19.958 27.4286 11.8459C 27.429 5.7123 22.3153 0 14.5446 0Z"/>
</defs>
</svg>
