<svg width="45" height="36" viewBox="0 0 45 36" version="1.1" xmlns="http://www.w3.org/2000/svg" xmlns:xlink="http://www.w3.org/1999/xlink">
<title>twitter-social-logotype</title>
<desc>Created using Figma</desc>
<g id="Canvas" transform="translate(-5234 -1598)">
<g id="twitter-social-logotype">
<g id="Group">
<g id="Vector">
<use xlink:href="#path0_fill" transform="translate(5234.91 1598)" fill="#FFFFFF"/>
</g>
</g>
</g>
</g>
<defs>
<path id="path0_fill" d="M 43.8345 4.28804C 43.7716 4.21335 43.6677 4.188 43.5792 4.22874C 42.2672 4.81494 40.8868 5.23636 39.4651 5.48533C 40.9745 4.34191 42.0991 2.75851 42.6757 0.942889C 42.7036 0.855979 42.6748 0.760921 42.6043 0.704338C 42.5333 0.647756 42.4348 0.640513 42.3571 0.687137C 40.6571 1.70245 38.8161 2.41811 36.8824 2.81509C 35.169 1.02437 32.7765 2.03757e-07 30.3003 2.03757e-07C 25.2643 2.03757e-07 21.1678 4.12554 21.1678 9.19668C 21.1678 9.81003 21.2267 10.4175 21.3436 11.0073C 14.3686 10.5737 7.84666 7.20136 3.41212 1.72373C 3.36672 1.6676 3.29795 1.63636 3.22604 1.64361C 3.15457 1.64904 3.09075 1.68978 3.05479 1.75179C 2.24573 3.1496 1.81828 4.74885 1.81828 6.37571C 1.81828 9.19532 3.0903 11.8316 5.25633 13.5712C 4.14117 13.4363 3.05209 13.0828 2.06998 12.5337C 2.00391 12.4961 1.92166 12.4966 1.85558 12.535C 1.78951 12.5731 1.74771 12.6437 1.74591 12.7206L 1.74501 12.8383C 1.74501 16.8878 4.39468 20.4435 8.16444 21.624C 7.17155 21.7851 6.14135 21.7743 5.12867 21.5796C 5.05406 21.5656 4.97585 21.5914 4.92461 21.6493C 4.87382 21.7073 4.85674 21.7883 4.88011 21.8616C 6.01055 25.415 9.15149 27.9069 12.8075 28.2174C 9.75784 30.4676 6.15303 31.6531 2.34416 31.6531C 1.64253 31.6531 0.935952 31.611 0.243758 31.5291C 0.144873 31.5178 0.0468867 31.5771 0.0127264 31.6726C -0.0214339 31.769 0.0149738 31.8767 0.100374 31.9315C 4.22208 34.5936 8.98788 36 13.8831 36C 29.8958 36 39.4642 22.9009 39.4642 10.2373C 39.4642 9.88472 39.4575 9.53391 39.4436 9.18401C 41.1709 7.91158 42.6537 6.35398 43.8493 4.55104C 43.9028 4.47046 43.897 4.36318 43.8345 4.28804Z"/>
</defs>
</svg>
