<svg width="51" height="36" viewBox="0 0 51 36" version="1.1" xmlns="http://www.w3.org/2000/svg" xmlns:xlink="http://www.w3.org/1999/xlink">
<title>vk-social-logotype</title>
<desc>Created using Figma</desc>
<g id="Canvas" transform="translate(-5121 -1598)">
<g id="vk-social-logotype">
<g id="Group">
<g id="Vector">
<use xlink:href="#path0_fill" transform="translate(5121.9 1598)" fill="#FFFFFF"/>
</g>
</g>
</g>
</g>
<defs>
<path id="path0_fill" d="M 47.3263 29.1605C 45.8563 26.8888 44.1264 24.95 42.4896 22.8912C 41.013 21.0355 40.9199 19.9589 42.1069 17.8171C 43.4024 15.4794 44.7957 13.2315 46.1029 10.9044C 47.3232 8.72956 48.5706 6.56068 49.2128 3.95671C 49.62 2.30006 49.2598 1.56831 47.9413 1.27825C 47.7141 1.22749 47.4793 1.22485 47.248 1.22485L 39.4254 1.21299C 38.4619 1.19453 37.9293 1.73576 37.5885 2.83602C 37.1285 4.32325 36.6542 5.80916 36.1063 7.24431C 34.8629 10.4983 33.4743 13.6435 31.5275 16.3068C 31.0982 16.8942 30.6234 17.6364 29.9061 17.3306C 29.0086 16.9087 28.7441 15.0035 28.7589 14.3594L 28.7513 2.72593C 28.5773 1.064 28.2913 0.323024 27.0106 1.60945e-07L 18.8845 0.00197803C 17.7998 0.00197803 17.256 0.541889 16.6768 1.41603C 16.3427 1.921 16.2419 2.24864 16.9285 2.41609C 18.2772 2.7457 19.037 3.87035 19.2386 5.61271C 19.562 8.39664 19.5395 11.1918 19.3532 13.9869C 19.2985 14.8031 19.1895 15.6172 18.9383 16.3793C 18.5453 17.5771 17.9109 17.821 17.0774 17.084C 16.3227 16.4169 15.7926 15.4755 15.2738 14.5301C 13.3249 10.9822 11.77 7.15597 10.5021 3.13531C 10.1358 1.97374 9.5039 1.26968 8.54865 1.25056C 6.20169 1.20244 3.85423 1.19453 1.50728 1.2532C 0.0951179 1.28748 -0.325972 2.17085 0.249125 3.82025C 2.80534 11.1463 5.65064 18.2687 9.36473 24.7568C 11.2717 28.0866 13.461 31.0261 16.2894 33.1093C 19.4949 35.4707 22.9455 36.1813 26.5798 35.9625C 28.2816 35.8596 28.7927 35.2894 28.8715 33.104C 28.9247 31.6089 29.0562 30.1223 29.6287 28.7788C 30.1905 27.4603 31.0414 27.2092 32.0223 28.0293C 32.5129 28.44 32.9263 28.9627 33.3167 29.5138C 34.2745 30.8639 35.1981 32.2549 36.1922 33.5596C 37.4391 35.1944 38.9163 36.1602 40.7736 35.9631L 47.9633 35.9651C 49.1217 35.8675 49.7224 34.0375 49.0572 32.3716C 48.5901 31.2048 47.9771 30.1658 47.3263 29.1605Z"/>
</defs>
</svg>
