<svg width="64" height="78" viewBox="0 0 64 78" version="1.1" xmlns="http://www.w3.org/2000/svg" xmlns:xlink="http://www.w3.org/1999/xlink">
<title>&#208;&#186;&#208;&#190;&#209;&#128;&#208;&#183;&#208;&#184;&#208;&#189;&#208;&#176;</title>
<desc>Created using Figma</desc>
<g id="Canvas" transform="translate(-280 -1967)">
<g id="&#208;&#186;&#208;&#190;&#209;&#128;&#208;&#183;&#208;&#184;&#208;&#189;&#208;&#176;">
<g id="Group">
<g id="Vector">
<use xlink:href="#path0_fill" transform="matrix(0.1 0 0 -0.1 306.983 1987.82)" fill="#021938"/>
</g>
<g id="Vector">
<use xlink:href="#path1_fill" transform="matrix(0.1 0 0 -0.1 280 2032.17)" fill="#021938"/>
</g>
<g id="Vector">
<use xlink:href="#path2_fill" transform="matrix(0.1 0 0 -0.1 306.737 2044.55)" fill="#021938"/>
</g>
<g id="Vector">
<use xlink:href="#path3_fill" transform="matrix(0.1 0 0 -0.1 327.174 2045)" fill="#021938"/>
</g>
</g>
</g>
</g>
<defs>
<path id="path0_fill" d="M 59.1476 207.291C 56.7817 206.204 55.2537 204.625 54.2187 202.205C 53.5779 200.576 53.4793 195.59 53.4793 162.858L 53.4793 125.337L 30.2146 125.189C 7.68919 125.041 6.85127 124.992 4.92897 124.004C 3.8446 123.461 2.31662 122.029 1.47869 120.894C 0.197159 119.067 0 118.376 0 115.414C 0 112.649 0.197159 111.81 1.23224 110.329C 2.95738 107.959 131.061 2.01224 133.772 0.778006C 136.286 -0.406861 139.983 -0.209383 142.151 1.17296C 144.715 2.85152 272.227 108.502 273.262 109.786C 276.811 114.328 275.036 121.388 269.664 124.054L 267.199 125.288L 244.378 125.288L 221.557 125.288L 221.459 163.5L 221.311 201.712L 219.832 203.884C 218.945 205.118 217.417 206.451 216.135 207.142L 213.967 208.229L 137.518 208.229C 64.2738 208.229 61.0206 208.179 59.1476 207.291Z"/>
<path id="path1_fill" d="M 43.3475 580.98C 19.6392 580.733 0.169776 580.437 0.0711962 580.338C -0.0766729 580.239 0.0219065 569.773 0.219065 557.134L 0.613383 534.128L 40.3902 534.474L 80.2162 534.819L 82.1878 528.451C 86.131 515.812 210.045 108.86 212.608 100.072C 214.087 95.135 220.396 75.4365 226.656 56.2812C 232.965 37.1258 239.619 16.6375 241.541 10.7625L 244.992 0L 418.738 0L 592.435 0L 592.435 23.2036L 592.435 46.4073L 435.841 46.506L 279.248 46.6541L 271.51 68.6236C 267.271 80.7191 263.87 90.6423 263.919 90.6917C 263.968 90.7904 339.579 90.3955 432.046 89.9018C 524.464 89.3587 600.124 88.9638 600.124 89.0131C 600.42 89.3587 640.196 361.088 639.999 361.286C 639.851 361.483 532.498 375.257 401.437 391.994C 270.376 408.73 163.023 422.553 162.924 422.652C 162.826 422.751 151.834 458.494 138.575 502.087L 114.473 581.325L 100.474 581.375C 92.7851 581.375 67.0559 581.227 43.3475 580.98ZM 246.421 365.087C 279.642 360.841 307.392 357.287 308.181 357.139L 309.512 356.842L 309.512 312.459L 309.512 268.076L 261.109 268.175L 212.756 268.323L 198.61 317.939C 190.872 345.241 184.168 368.839 183.725 370.419L 182.887 373.283L 184.464 372.986C 185.351 372.838 213.2 369.284 246.421 365.087ZM 399.466 345.586C 423.026 342.575 442.84 340.008 443.481 339.909L 444.566 339.662L 444.566 303.869L 444.566 268.076L 399.958 268.076L 355.351 268.076L 355.351 309.547C 355.351 341.538 355.499 351.017 355.943 351.017C 356.288 351.017 375.856 348.548 399.466 345.586ZM 539.793 327.616C 565.769 324.308 587.111 321.445 587.309 321.296C 587.456 321.099 585.879 309.102 583.71 294.637L 579.866 268.323L 535.357 268.175L 490.898 268.076L 490.898 300.907C 490.898 331.862 490.947 333.738 491.785 333.738C 492.229 333.688 513.867 330.973 539.793 327.616ZM 309.512 179.112L 309.512 136.605L 301.28 136.902C 296.795 137.099 283.388 137.247 271.559 137.247L 250.069 137.247L 238.14 179.112C 231.585 202.119 226.212 221.126 226.212 221.323C 226.212 221.521 244.942 221.669 267.862 221.669L 309.512 221.669L 309.512 179.112ZM 444.566 178.964L 444.566 136.26L 427.413 136.26C 417.949 136.26 397.888 136.408 382.806 136.605L 355.351 136.902L 355.351 179.31L 355.351 221.669L 399.958 221.669L 444.566 221.669L 444.566 178.964ZM 572.719 220.78C 572.719 220.287 569.959 201.082 566.558 178.125C 563.157 155.168 560.396 136.21 560.396 136.062C 560.396 135.914 544.772 135.766 525.647 135.766L 490.898 135.766L 490.898 178.717L 490.898 221.669L 531.808 221.669C 570.944 221.669 572.719 221.62 572.719 220.78Z"/>
<path id="path2_fill" d="M 41.4033 96.7907C 34.0099 95.6059 25.1377 91.9525 19.4694 87.7561C 12.766 82.7698 6.75269 75.2656 3.69673 68.1071C 0.640766 60.8991 0 57.6407 0 48.7542C 0 41.7438 0.147869 40.0158 1.13366 36.4119C 3.49957 27.7722 7.83706 20.3174 14.0969 14.0969C 30.6089 -2.2938 55.9931 -4.66353 75.4132 8.41937C 82.1659 13.0107 88.9679 21.058 92.3689 28.5621C 95.7206 36.0169 97.2486 45.3477 96.4106 53.0987C 95.0798 65.1943 90.3973 74.9201 81.9688 83.1154C 72.5544 92.3475 62.5486 96.5439 49.5361 96.8895C 45.8887 96.9882 42.2413 96.9388 41.4033 96.7907Z"/>
<path id="path3_fill" d="M 42.5663 96.6772C 28.3216 94.8506 15.802 87.0008 7.76782 74.8065C 4.36683 69.6228 2.14879 64.2415 0.817969 57.7247C 0.0293336 53.9233 -0.118535 51.8498 0.0786233 46.6166C 0.423651 38.8162 1.50802 34.2249 4.81043 27.3625C 11.5138 13.3909 23.8855 3.81326 39.4118 0.653617C 44.9815 -0.481881 55.776 -0.0869254 61.05 1.44353C 78.0549 6.33111 90.9195 19.3646 95.4049 36.2984C 97.13 43.0126 97.2779 52.8371 95.6513 59.3539C 93.2361 69.0797 88.5536 77.1763 81.5545 83.7424C 73.9146 90.901 63.8595 95.5417 53.5579 96.6772C 48.1854 97.2697 47.446 97.2697 42.5663 96.6772Z"/>
</defs>
</svg>
