<svg width="70" height="46" viewBox="0 0 70 46" version="1.1" xmlns="http://www.w3.org/2000/svg" xmlns:xlink="http://www.w3.org/1999/xlink">
<title>express-delivery</title>
<desc>Created using Figma</desc>
<g id="Canvas" transform="translate(-4132 615)">
<g id="express-delivery">
<g id="Group">
<g id="Icons 13">
<g id="Group">
<g id="Vector">
<use xlink:href="#path0_fill" transform="translate(4132 -589.753)" fill="#F2F5FA"/>
</g>
<g id="Vector">
<use xlink:href="#path1_fill" transform="translate(4139.09 -599.184)" fill="#F2F5FA"/>
</g>
<g id="Vector">
<use xlink:href="#path2_fill" transform="translate(4146.18 -608.614)" fill="#F2F5FA"/>
</g>
<g id="Vector">
<use xlink:href="#path3_fill" transform="translate(4176.91 -587.37)" fill="#F2F5FA"/>
</g>
<g id="Vector">
<use xlink:href="#path4_fill" transform="translate(4161.18 -615)" fill="#F2F5FA"/>
</g>
</g>
</g>
</g>
</g>
</g>
<defs>
<path id="path0_fill" d="M 21.7091 -1.42189e-06L 2.36323 -1.42189e-06C 1.0569 -1.42189e-06 0 1.05529 0 2.35747C 0 3.65937 1.05676 4.71509 2.36323 4.71509L 21.7091 4.71509C 23.015 4.71509 24.0719 3.65937 24.0719 2.35747C 24.0718 1.05529 23.015 -1.42189e-06 21.7091 -1.42189e-06Z"/>
<path id="path1_fill" d="M 16.9832 9.8839e-07L 2.36323 9.8839e-07C 1.0569 9.8839e-07 -2.60675e-08 1.05586 -2.60675e-08 2.35818C -2.60675e-08 3.65994 1.0569 4.71566 2.36323 4.71566L 16.9834 4.71566C 18.2893 4.71566 19.3462 3.65994 19.3462 2.35818C 19.346 1.05572 18.2893 9.8839e-07 16.9832 9.8839e-07Z"/>
<path id="path2_fill" d="M 12.2573 9.19029e-07L 2.36309 9.19029e-07C 1.05676 9.19029e-07 -1.30337e-07 1.05558 -1.30337e-07 2.35747C -1.30337e-07 3.65965 1.05676 4.71552 2.36309 4.71552L 12.2573 4.71552C 13.5637 4.71552 14.6206 3.65965 14.6206 2.35747C 14.6206 1.05558 13.5637 9.19029e-07 12.2573 9.19029e-07Z"/>
<path id="path3_fill" d="M 9.20435 1.04041e-06C 4.12796 1.04041e-06 -7.64646e-07 4.12018 -7.64646e-07 9.18543C -7.64646e-07 14.2497 4.12796 18.3699 9.20435 18.3699C 14.2786 18.3699 18.409 14.2497 18.409 9.18543C 18.409 4.12018 14.2786 1.04041e-06 9.20435 1.04041e-06ZM 9.20435 13.6543C 6.73321 13.6543 4.72546 11.6503 4.72546 9.18543C 4.72546 6.72085 6.73321 4.71551 9.20435 4.71551C 11.6758 4.71551 13.6831 6.72085 13.6831 9.18543C 13.6832 11.6501 11.6758 13.6543 9.20435 13.6543Z"/>
<path id="path4_fill" d="M 34.6358 18.196L 33.1545 18.1833C 32.4919 18.1777 31.9038 17.7634 31.6775 17.1427L 25.8347 1.04066C 25.6085 0.415925 25.0134 -4.24834e-07 24.3463 -4.24834e-07L 8.05356 -4.24834e-07C 7.29662 -4.24834e-07 6.64587 0.535532 6.50266 1.27689L 0.027979 34.468C -0.0595744 34.9313 0.0602943 35.41 0.360396 35.7735C 0.660213 36.1376 1.10809 36.3481 1.58088 36.3481L 12.2302 36.3481C 12.4838 29.5538 18.0633 24.0935 24.9326 24.0935C 31.8019 24.0935 37.3817 29.5536 37.6354 36.3481L 39.232 36.3481C 40.1069 36.3481 40.8152 35.6412 40.8152 34.7702L 40.8152 24.4116C 40.8152 20.9979 38.0578 18.2237 34.6358 18.196ZM 25.9526 13.2907C 25.7796 13.5195 25.5097 13.6555 25.2213 13.6555L 8.81264 13.6555C 8.54272 13.6555 8.28875 13.5383 8.11578 13.3329C 7.94281 13.1292 7.86877 12.8587 7.91291 12.5952L 9.28102 4.39619C 9.35505 3.95796 9.73587 3.63565 10.1812 3.63565L 22.8054 3.63565C 23.2091 3.63565 23.5666 3.90128 23.6798 4.28951L 26.0982 12.4884C 26.1788 12.7635 26.1256 13.0606 25.9526 13.2907Z"/>
</defs>
</svg>
