<svg width="52" height="43" viewBox="0 0 52 43" version="1.1" xmlns="http://www.w3.org/2000/svg" xmlns:xlink="http://www.w3.org/1999/xlink">
<title>online-store-shopping-cart</title>
<desc>Created using Figma</desc>
<g id="Canvas" transform="translate(-4256 965)">
<g id="online-store-shopping-cart">
<g id="Group">
<g id="Icons 38">
<g id="Vector">
<use xlink:href="#path0_fill" transform="translate(4256 -965)" fill="#213148"/>
</g>
</g>
</g>
</g>
</g>
<defs>
<path id="path0_fill" d="M 51.2668 6.1568C 50.5007 5.05308 49.2412 4.39385 47.8955 4.39385L 22.4676 4.39385C 21.5186 4.39385 20.7481 5.16368 20.7481 6.11328C 20.7481 7.06257 21.5186 7.83239 22.4676 7.83239L 47.8954 7.83239C 48.1121 7.83239 48.3171 7.93802 48.4414 8.11865C 48.5659 8.29663 48.5945 8.5249 48.5187 8.72813L 43.7534 21.5487C 43.6577 21.808 43.4057 21.9827 43.13 21.9827L 16.4092 21.9827L 12.1529 3.82905C 11.6235 1.57514 9.63657 1.19271e-07 7.31855 1.19271e-07L 2.58 1.19271e-07C 1.15399 1.19271e-07 0 1.15442 0 2.57893C 0 4.00376 1.15399 5.15776 2.58 5.15776L 7.16426 5.15776L 12.8953 29.6009C 13.414 31.8104 15.3373 33.3585 17.5952 33.4189C 16.2679 34.3819 15.3981 35.9342 15.3981 37.6986C 15.3981 40.6268 17.7716 43 20.701 43C 23.6289 43 26.0035 40.6267 26.0035 37.6986C 26.0035 35.9407 25.1371 34.3944 23.8201 33.4299L 33.7139 33.4299C 32.3949 34.3944 31.5286 35.9407 31.5286 37.6986C 31.5286 40.6268 33.9033 43 36.8309 43C 39.7606 43 42.1357 40.6267 42.1357 37.6986C 42.1357 35.9407 41.2687 34.3944 39.9505 33.4299L 42.3554 33.4299C 43.7815 33.4299 44.9356 32.2756 44.9356 30.851C 44.9356 29.4265 43.7816 28.2721 42.3554 28.2721L 17.8839 28.2721L 17.2154 25.4212L 43.1301 25.4212C 44.8348 25.4212 46.3819 24.3476 46.9767 22.7474L 51.7437 9.92448C 52.2106 8.66496 52.0325 7.25576 51.2668 6.1568Z"/>
</defs>
</svg>
