<svg width="48" height="33" xmlns="http://www.w3.org/2000/svg" xmlns:xlink="http://www.w3.org/1999/xlink" viewBox="0 0 306.67 310.43">
  <defs>
   <style>#path0_fill,#path1_fill{fill:#213148;color:#213148}
  </style>
  </defs>
  <path id="path0_fill" d="M47.8 29.82l-19.86-9.34a14.59 14.59 0 1 0-1.5 2.61l20.08 9.45 1.28-2.72zm-33.14-3.64a11.5 11.5 0 1 1 0-23 11.5 11.5 0 0 1 0 23z"/>
    <path id="path1_fill" d="M9.45 19.14c-1.26 0-2.31-1.17-2.72-2.92-1.51.93-3.09 1-4 .12-.91-.88-.82-2.48.12-4C1.18 11.91 0 10.8 0 9.58 0 8.36 1.18 7.25 2.89 6.8c-.94-1.53-1-3.11-.12-4 .88-.89 2.45-.81 4 .12C7.18 1.17 8.23 0 9.49 0c1.26 0 2.31 1.17 2.72 2.92 1.51-.93 3.09-1 4-.12.91.88.82 2.48-.12 4 1.71.42 2.89 1.5 2.89 2.75s-1.18 2.33-2.89 2.75c.94 1.53 1 3.11.12 4-.88.89-2.46.81-4-.12-.45 1.79-1.51 2.96-2.76 2.96zm-2-4.75l.1.91c.18 1.62 1 2.84 1.87 2.84.87 0 1.69-1.22 1.87-2.84l.1-.91.71.58c1.25 1 2.66 1.29 3.29.66.63-.63.35-2.08-.66-3.35l-.56-.7.9-.11c1.59-.18 2.8-1 2.8-1.89 0-.89-1.21-1.72-2.8-1.9l-.9-.1.56-.7c1-1.28 1.29-2.72.66-3.35-.63-.63-2-.35-3.29.66l-.71.58-.1-.91c-.18-1.62-1-2.84-1.87-2.84-.87 0-1.69 1.22-1.87 2.84l-.1.91-.71-.58c-1.25-1-2.66-1.3-3.29-.66-.63.64-.35 2.07.66 3.35l.56.7-.9.1c-1.59.18-2.8 1-2.8 1.9 0 .9 1.21 1.71 2.8 1.89l.9.11-.56.7c-1 1.27-1.29 2.72-.66 3.35.63.63 2 .35 3.29-.66l.71-.58z"/>
</svg>
